<mxfile host="app.diagrams.net" modified="2022-04-08T23:58:09.940Z" agent="5.0 (X11; Linux x86_64) AppleWebKit/537.36 (KHTML, like Gecko) Chrome/100.0.4896.75 Safari/537.36" etag="m0RBQOOMsmsZkYWo9bWk" version="17.4.1" type="github">
  <diagram id="tS1tN6f3eVREYnWH6lkd" name="Page-1">
    <mxGraphModel dx="3183" dy="2548" grid="1" gridSize="10" guides="1" tooltips="1" connect="1" arrows="1" fold="1" page="1" pageScale="1" pageWidth="850" pageHeight="1100" math="0" shadow="0">
      <root>
        <mxCell id="0" />
        <mxCell id="1" parent="0" />
        <mxCell id="fHn-mifkFvmlzk18vDCb-1" value="&lt;font style=&quot;font-size: 14px&quot;&gt;&amp;lt;ip_addr&amp;gt;&lt;/font&gt;" style="ellipse;whiteSpace=wrap;html=1;aspect=fixed;" vertex="1" parent="1">
          <mxGeometry x="-1330" y="250" width="140" height="140" as="geometry" />
        </mxCell>
        <mxCell id="fHn-mifkFvmlzk18vDCb-2" value="ip" style="triangle;whiteSpace=wrap;html=1;direction=north;" vertex="1" parent="1">
          <mxGeometry x="-1055" y="270" width="140" height="120" as="geometry" />
        </mxCell>
        <mxCell id="fHn-mifkFvmlzk18vDCb-3" value="service" style="text;html=1;align=center;verticalAlign=middle;resizable=0;points=[];autosize=1;strokeColor=none;fillColor=none;rotation=-57;fontSize=25;" vertex="1" parent="1">
          <mxGeometry x="-1080" y="300" width="90" height="40" as="geometry" />
        </mxCell>
        <mxCell id="fHn-mifkFvmlzk18vDCb-5" value="&lt;font style=&quot;font-size: 12px&quot;&gt;Device Type:&lt;br&gt;HN:&lt;br&gt;Interface type:&lt;br&gt;CIDR:&lt;br&gt;OS:&lt;br&gt;Open Ports:&lt;/font&gt;" style="text;html=1;align=center;verticalAlign=middle;resizable=0;points=[];autosize=1;strokeColor=none;fillColor=none;fontSize=25;" vertex="1" parent="1">
          <mxGeometry x="-1305" y="370" width="90" height="220" as="geometry" />
        </mxCell>
        <mxCell id="fHn-mifkFvmlzk18vDCb-9" value="" style="endArrow=none;html=1;rounded=0;fontSize=14;" edge="1" parent="1">
          <mxGeometry width="50" height="50" relative="1" as="geometry">
            <mxPoint x="-1250" y="640" as="sourcePoint" />
            <mxPoint x="-1090" y="640" as="targetPoint" />
          </mxGeometry>
        </mxCell>
        <mxCell id="fHn-mifkFvmlzk18vDCb-11" value="" style="endArrow=none;html=1;rounded=0;fontSize=14;" edge="1" parent="1">
          <mxGeometry width="50" height="50" relative="1" as="geometry">
            <mxPoint x="-1090" y="780" as="sourcePoint" />
            <mxPoint x="-1090" y="640" as="targetPoint" />
          </mxGeometry>
        </mxCell>
        <mxCell id="fHn-mifkFvmlzk18vDCb-12" value="" style="endArrow=none;html=1;rounded=0;fontSize=14;" edge="1" parent="1">
          <mxGeometry width="50" height="50" relative="1" as="geometry">
            <mxPoint x="-1230" y="780" as="sourcePoint" />
            <mxPoint x="-940" y="780" as="targetPoint" />
          </mxGeometry>
        </mxCell>
        <mxCell id="fHn-mifkFvmlzk18vDCb-13" value="subnet" style="text;html=1;align=center;verticalAlign=middle;resizable=0;points=[];autosize=1;strokeColor=none;fillColor=none;fontSize=14;" vertex="1" parent="1">
          <mxGeometry x="-1220" y="760" width="60" height="20" as="geometry" />
        </mxCell>
        <mxCell id="fHn-mifkFvmlzk18vDCb-14" value="range" style="text;html=1;align=center;verticalAlign=middle;resizable=0;points=[];autosize=1;strokeColor=none;fillColor=none;fontSize=14;" vertex="1" parent="1">
          <mxGeometry x="-1020" y="760" width="50" height="20" as="geometry" />
        </mxCell>
        <mxCell id="fHn-mifkFvmlzk18vDCb-19" value="&lt;font style=&quot;font-size: 12px&quot;&gt;HN:&lt;br&gt;OS:&lt;br&gt;Open Ports:&lt;/font&gt;&lt;br&gt;" style="text;html=1;align=center;verticalAlign=middle;resizable=0;points=[];autosize=1;strokeColor=none;fillColor=none;fontSize=25;" vertex="1" parent="1">
          <mxGeometry x="-1025" y="400" width="80" height="110" as="geometry" />
        </mxCell>
        <mxCell id="fHn-mifkFvmlzk18vDCb-20" value="" style="swimlane;startSize=0;fontSize=14;" vertex="1" parent="1">
          <mxGeometry x="1220" y="-280" width="330" height="410" as="geometry" />
        </mxCell>
        <mxCell id="fHn-mifkFvmlzk18vDCb-21" value="RTR&lt;br&gt;&lt;br&gt;Red Boundry Router&lt;br&gt;IP: 172.16.0.1&lt;br&gt;Ports: 22 / ssh&lt;br&gt;UN: vyos&lt;br&gt;PW: password&lt;br&gt;HN: RED-SCR" style="text;html=1;align=center;verticalAlign=middle;resizable=0;points=[];autosize=1;strokeColor=none;fillColor=none;fontSize=14;" vertex="1" parent="fHn-mifkFvmlzk18vDCb-20">
          <mxGeometry x="95" width="140" height="140" as="geometry" />
        </mxCell>
        <mxCell id="fHn-mifkFvmlzk18vDCb-32" value="e/1" style="rounded=0;whiteSpace=wrap;html=1;fontSize=24;" vertex="1" parent="fHn-mifkFvmlzk18vDCb-20">
          <mxGeometry x="280" width="50" height="60" as="geometry" />
        </mxCell>
        <mxCell id="fHn-mifkFvmlzk18vDCb-39" value="e/0" style="rounded=0;whiteSpace=wrap;html=1;fontSize=24;" vertex="1" parent="fHn-mifkFvmlzk18vDCb-20">
          <mxGeometry x="150" y="350" width="50" height="60" as="geometry" />
        </mxCell>
        <mxCell id="fHn-mifkFvmlzk18vDCb-46" value="e/2" style="rounded=0;whiteSpace=wrap;html=1;fontSize=24;" vertex="1" parent="fHn-mifkFvmlzk18vDCb-20">
          <mxGeometry width="50" height="60" as="geometry" />
        </mxCell>
        <mxCell id="fHn-mifkFvmlzk18vDCb-51" value="loop" style="rounded=0;whiteSpace=wrap;html=1;fontSize=24;" vertex="1" parent="fHn-mifkFvmlzk18vDCb-20">
          <mxGeometry y="350" width="50" height="60" as="geometry" />
        </mxCell>
        <mxCell id="fHn-mifkFvmlzk18vDCb-22" value="&lt;span style=&quot;font-size: 14px&quot;&gt;10.10.0.40/27&lt;/span&gt;" style="ellipse;whiteSpace=wrap;html=1;aspect=fixed;" vertex="1" parent="1">
          <mxGeometry x="1340" y="660" width="140" height="140" as="geometry" />
        </mxCell>
        <mxCell id="fHn-mifkFvmlzk18vDCb-24" value="internet" style="ellipse;shape=cloud;whiteSpace=wrap;html=1;fontSize=14;" vertex="1" parent="1">
          <mxGeometry x="1260" y="280" width="230" height="200" as="geometry" />
        </mxCell>
        <mxCell id="fHn-mifkFvmlzk18vDCb-25" value="" style="endArrow=none;html=1;rounded=0;fontSize=14;entryX=0.513;entryY=0.954;entryDx=0;entryDy=0;entryPerimeter=0;exitX=0.426;exitY=0;exitDx=0;exitDy=0;exitPerimeter=0;" edge="1" parent="1" source="fHn-mifkFvmlzk18vDCb-22" target="fHn-mifkFvmlzk18vDCb-24">
          <mxGeometry width="50" height="50" relative="1" as="geometry">
            <mxPoint x="1310" y="510" as="sourcePoint" />
            <mxPoint x="1360" y="460" as="targetPoint" />
            <Array as="points">
              <mxPoint x="1410" y="560" />
              <mxPoint x="1410" y="530" />
            </Array>
          </mxGeometry>
        </mxCell>
        <mxCell id="fHn-mifkFvmlzk18vDCb-26" value="" style="endArrow=none;html=1;rounded=0;fontSize=14;exitX=0.57;exitY=0.146;exitDx=0;exitDy=0;exitPerimeter=0;entryX=0.5;entryY=1;entryDx=0;entryDy=0;" edge="1" parent="1" source="fHn-mifkFvmlzk18vDCb-24" target="fHn-mifkFvmlzk18vDCb-20">
          <mxGeometry width="50" height="50" relative="1" as="geometry">
            <mxPoint x="1300" y="180" as="sourcePoint" />
            <mxPoint x="1350" y="130" as="targetPoint" />
          </mxGeometry>
        </mxCell>
        <mxCell id="fHn-mifkFvmlzk18vDCb-30" value="&lt;p style=&quot;line-height: 0.5&quot;&gt;&lt;font style=&quot;font-size: 12px&quot;&gt;Device Type: workstation&lt;br&gt;HN: internet-host-student-11&lt;br&gt;OS:&amp;nbsp;Debian 4.19.208-1 (2021-09-29) x86_64 GNU/Linux&lt;span style=&quot;color: rgba(0 , 0 , 0 , 0) ; font-family: monospace ; font-size: 0px&quot;&gt;%3CmxGraphModel%3E%3Croot%3E%3CmxCell%20id%3D%220%22%2F%3E%3CmxCell%20id%3D%221%22%20parent%3D%220%22%2F%3E%3CmxCell%20id%3D%222%22%20value%3D%22%26lt%3Bfont%20style%3D%26quot%3Bfont-size%3A%2012px%26quot%3B%26gt%3BDevice%20Type%3A%26lt%3Bbr%26gt%3BHN%3A%26lt%3Bbr%26gt%3BInterface%20type%3A%26lt%3Bbr%26gt%3BCIDR%3A%26lt%3Bbr%26gt%3BOS%3A%26lt%3Bbr%26gt%3BOpen%20Ports%3A%26lt%3B%2Ffont%26gt%3B%22%20style%3D%22text%3Bhtml%3D1%3Balign%3Dcenter%3BverticalAlign%3Dmiddle%3Bresizable%3D0%3Bpoints%3D%5B%5D%3Bautosize%3D1%3BstrokeColor%3Dnone%3BfillColor%3Dnone%3BfontSize%3D25%3B%22%20vertex%3D%221%22%20parent%3D%221%22%3E%3CmxGeometry%20x%3D%2285%22%20y%3D%22320%22%20width%3D%2290%22%20height%3D%22220%22%20as%3D%22geometry%22%2F%3E%3C%2FmxCell%3E%3C%2Froot%3E%3C%2FmxGraphModel%3E&lt;/span&gt;&lt;br&gt;Open Ports:&amp;nbsp;&lt;br&gt;&lt;/font&gt;&lt;span style=&quot;font-size: 12px&quot;&gt;21/tcp&amp;nbsp; &amp;nbsp;open&amp;nbsp; ftp&lt;/span&gt;&lt;/p&gt;&lt;p style=&quot;line-height: 0.5&quot;&gt;&lt;span style=&quot;font-size: 12px&quot;&gt;22/tcp&amp;nbsp; &amp;nbsp;open&amp;nbsp; ssh&lt;/span&gt;&lt;/p&gt;&lt;p style=&quot;line-height: 0.5&quot;&gt;&lt;span style=&quot;font-size: 12px&quot;&gt;23/tcp&amp;nbsp; &amp;nbsp;open&amp;nbsp; telnet&lt;/span&gt;&lt;/p&gt;&lt;div&gt;&lt;span style=&quot;font-size: 12px&quot;&gt;80/tcp&amp;nbsp; &amp;nbsp;open&amp;nbsp; http&lt;/span&gt;&lt;/div&gt;&lt;div&gt;&lt;span style=&quot;font-size: 12px&quot;&gt;3389/tcp open&amp;nbsp; ms-wbt-server&lt;/span&gt;&lt;/div&gt;&lt;div&gt;&lt;br&gt;&lt;/div&gt;&lt;p&gt;&lt;/p&gt;" style="text;html=1;align=center;verticalAlign=middle;resizable=0;points=[];autosize=1;strokeColor=none;fillColor=none;fontSize=25;" vertex="1" parent="1">
          <mxGeometry x="1240" y="800" width="320" height="330" as="geometry" />
        </mxCell>
        <mxCell id="fHn-mifkFvmlzk18vDCb-34" value="" style="endArrow=none;html=1;rounded=0;fontSize=24;exitX=1;exitY=0.5;exitDx=0;exitDy=0;" edge="1" parent="1" source="fHn-mifkFvmlzk18vDCb-32">
          <mxGeometry width="50" height="50" relative="1" as="geometry">
            <mxPoint x="1610" y="-230" as="sourcePoint" />
            <mxPoint x="2180" y="-250" as="targetPoint" />
          </mxGeometry>
        </mxCell>
        <mxCell id="fHn-mifkFvmlzk18vDCb-36" value="172.16.120.6/30" style="text;html=1;align=center;verticalAlign=middle;resizable=0;points=[];autosize=1;strokeColor=none;fillColor=none;fontSize=24;" vertex="1" parent="1">
          <mxGeometry x="1550" y="-285" width="190" height="30" as="geometry" />
        </mxCell>
        <mxCell id="fHn-mifkFvmlzk18vDCb-37" value="&quot;REDNET&quot;" style="text;html=1;align=center;verticalAlign=middle;resizable=0;points=[];autosize=1;strokeColor=none;fillColor=none;fontSize=24;" vertex="1" parent="1">
          <mxGeometry x="1780" y="-240" width="130" height="30" as="geometry" />
        </mxCell>
        <mxCell id="fHn-mifkFvmlzk18vDCb-38" value="172.16.120.5/30" style="text;html=1;align=center;verticalAlign=middle;resizable=0;points=[];autosize=1;strokeColor=none;fillColor=none;fontSize=24;" vertex="1" parent="1">
          <mxGeometry x="1990" y="-285" width="190" height="30" as="geometry" />
        </mxCell>
        <mxCell id="fHn-mifkFvmlzk18vDCb-40" value="&lt;font style=&quot;font-size: 15px&quot;&gt;172.16.120.1/30&lt;/font&gt;" style="text;html=1;align=center;verticalAlign=middle;resizable=0;points=[];autosize=1;strokeColor=none;fillColor=none;fontSize=24;rotation=90;" vertex="1" parent="1">
          <mxGeometry x="1340" y="180" width="120" height="40" as="geometry" />
        </mxCell>
        <mxCell id="fHn-mifkFvmlzk18vDCb-41" value="&quot;INTERNET&quot;" style="text;html=1;align=center;verticalAlign=middle;resizable=0;points=[];autosize=1;strokeColor=none;fillColor=none;fontSize=15;rotation=90;" vertex="1" parent="1">
          <mxGeometry x="1320" y="190" width="100" height="20" as="geometry" />
        </mxCell>
        <mxCell id="fHn-mifkFvmlzk18vDCb-42" value="" style="swimlane;startSize=0;fontSize=14;" vertex="1" parent="1">
          <mxGeometry x="2180" y="-380" width="200" height="280" as="geometry" />
        </mxCell>
        <mxCell id="fHn-mifkFvmlzk18vDCb-44" value="?" style="rounded=0;whiteSpace=wrap;html=1;fontSize=24;" vertex="1" parent="fHn-mifkFvmlzk18vDCb-42">
          <mxGeometry y="100" width="50" height="60" as="geometry" />
        </mxCell>
        <mxCell id="fHn-mifkFvmlzk18vDCb-45" value="UNK RTR&lt;br&gt;OSPF&lt;br&gt;MD5" style="text;html=1;align=center;verticalAlign=middle;resizable=0;points=[];autosize=1;strokeColor=none;fillColor=none;fontSize=15;" vertex="1" parent="fHn-mifkFvmlzk18vDCb-42">
          <mxGeometry x="70" width="80" height="60" as="geometry" />
        </mxCell>
        <mxCell id="fHn-mifkFvmlzk18vDCb-47" value="" style="endArrow=none;html=1;rounded=0;fontSize=15;entryX=-0.029;entryY=0.363;entryDx=0;entryDy=0;entryPerimeter=0;" edge="1" parent="1" target="fHn-mifkFvmlzk18vDCb-46">
          <mxGeometry width="50" height="50" relative="1" as="geometry">
            <mxPoint x="640" y="-260" as="sourcePoint" />
            <mxPoint x="1010" y="-310" as="targetPoint" />
          </mxGeometry>
        </mxCell>
        <mxCell id="fHn-mifkFvmlzk18vDCb-49" value="172.16.101.30/27" style="text;html=1;align=center;verticalAlign=middle;resizable=0;points=[];autosize=1;strokeColor=none;fillColor=none;fontSize=15;" vertex="1" parent="1">
          <mxGeometry x="1085" y="-285" width="130" height="20" as="geometry" />
        </mxCell>
        <mxCell id="fHn-mifkFvmlzk18vDCb-50" value="&quot;DMZ&quot;" style="text;html=1;align=center;verticalAlign=middle;resizable=0;points=[];autosize=1;strokeColor=none;fillColor=none;fontSize=15;" vertex="1" parent="1">
          <mxGeometry x="1100" y="-255" width="60" height="20" as="geometry" />
        </mxCell>
        <mxCell id="fHn-mifkFvmlzk18vDCb-52" value="" style="endArrow=none;html=1;rounded=0;fontSize=15;" edge="1" parent="1">
          <mxGeometry width="50" height="50" relative="1" as="geometry">
            <mxPoint x="960" y="100" as="sourcePoint" />
            <mxPoint x="1220" y="100" as="targetPoint" />
          </mxGeometry>
        </mxCell>
        <mxCell id="fHn-mifkFvmlzk18vDCb-53" value="loopback" style="text;html=1;align=center;verticalAlign=middle;resizable=0;points=[];autosize=1;strokeColor=none;fillColor=none;fontSize=15;" vertex="1" parent="1">
          <mxGeometry x="1050" y="80" width="80" height="20" as="geometry" />
        </mxCell>
        <mxCell id="fHn-mifkFvmlzk18vDCb-54" value="120.0.0.1/32" style="text;html=1;align=center;verticalAlign=middle;resizable=0;points=[];autosize=1;strokeColor=none;fillColor=none;fontSize=15;" vertex="1" parent="1">
          <mxGeometry x="1100" y="100" width="100" height="20" as="geometry" />
        </mxCell>
        <mxCell id="fHn-mifkFvmlzk18vDCb-55" value="" style="endArrow=none;html=1;rounded=0;fontSize=15;" edge="1" parent="1">
          <mxGeometry width="50" height="50" relative="1" as="geometry">
            <mxPoint x="640" y="-100" as="sourcePoint" />
            <mxPoint x="640" y="-260" as="targetPoint" />
          </mxGeometry>
        </mxCell>
        <mxCell id="fHn-mifkFvmlzk18vDCb-58" value="" style="endArrow=none;html=1;rounded=0;fontSize=18;strokeWidth=4;" edge="1" parent="1">
          <mxGeometry width="50" height="50" relative="1" as="geometry">
            <mxPoint x="430" y="-100" as="sourcePoint" />
            <mxPoint x="710" y="-100" as="targetPoint" />
          </mxGeometry>
        </mxCell>
        <mxCell id="fHn-mifkFvmlzk18vDCb-59" value="172.16.101.0/27" style="text;html=1;align=center;verticalAlign=middle;resizable=0;points=[];autosize=1;strokeColor=none;fillColor=none;fontSize=18;" vertex="1" parent="1">
          <mxGeometry x="465" y="-135" width="150" height="30" as="geometry" />
        </mxCell>
        <mxCell id="fHn-mifkFvmlzk18vDCb-60" value="(.1-.30)" style="text;html=1;align=center;verticalAlign=middle;resizable=0;points=[];autosize=1;strokeColor=none;fillColor=none;fontSize=18;" vertex="1" parent="1">
          <mxGeometry x="640" y="-130" width="70" height="30" as="geometry" />
        </mxCell>
        <mxCell id="fHn-mifkFvmlzk18vDCb-61" value="&lt;span style=&quot;font-size: 14px&quot;&gt;.2&lt;/span&gt;" style="ellipse;whiteSpace=wrap;html=1;aspect=fixed;" vertex="1" parent="1">
          <mxGeometry x="410" y="-60" width="140" height="140" as="geometry" />
        </mxCell>
        <mxCell id="fHn-mifkFvmlzk18vDCb-62" value="&lt;font style=&quot;font-size: 12px&quot;&gt;Device Type: UNK&lt;br&gt;HN:&lt;br&gt;OS: likely windows&lt;br&gt;Open Ports: 22 / tcp (ssh)&lt;br&gt;4444 / tcp (krb524, *filtered*)&lt;br&gt;&lt;/font&gt;" style="text;html=1;align=center;verticalAlign=middle;resizable=0;points=[];autosize=1;strokeColor=none;fillColor=none;fontSize=25;" vertex="1" parent="1">
          <mxGeometry x="395" y="85" width="170" height="180" as="geometry" />
        </mxCell>
        <mxCell id="fHn-mifkFvmlzk18vDCb-65" value="" style="endArrow=none;html=1;rounded=0;fontSize=18;strokeWidth=1;exitX=0.5;exitY=0;exitDx=0;exitDy=0;" edge="1" parent="1" source="fHn-mifkFvmlzk18vDCb-61">
          <mxGeometry width="50" height="50" relative="1" as="geometry">
            <mxPoint x="460" y="-50" as="sourcePoint" />
            <mxPoint x="480" y="-100" as="targetPoint" />
          </mxGeometry>
        </mxCell>
      </root>
    </mxGraphModel>
  </diagram>
</mxfile>
